#!OML:ASF F:\VICON\USERDATA\INSTALL\rory3\rory3.ASF
:FULLY-SPECIFIED
:DEGREES
4145
root 12.8733 17.7925 -12.7838 14.7108 -25.6667 8.9462
lowerback 14.5039 0.50601 1.22745
upperback 5.8721 0.954885 7.78646
thorax -2.02037 0.357178 7.42779
lowerneck -6.98929 -11.9363 -11.6229
upperneck 28.2264 -17.2106 7.3264
head 12.1148 -8.13263 2.32522
rclavicle -4.77083e-014 2.54444e-014
rhumerus 5.13333 17.9996 -74.8462
rradius 40.0985
rwrist -45.1385
rhand -35.5363 -29.1312
rfingers 7.12502
rthumb -8.66232 -58.9335
lclavicle -4.77083e-014 2.54444e-014
lhumerus -13.5142 -37.7576 100.067
lradius 49.7954
lwrist 24.3795
lhand -17.3544 49.7278
lfingers 7.12502
lthumb 8.89337 -1720.48
rfemur -40.622 -9.09761 5.25096
rtibia 32.8878
rfoot -14.0493 -13.7391
rtoes 11.4475
lfemur -20.0827 -0.736003 -27.1519
ltibia 18.4164
lfoot -13.4767 -6.83056
ltoes -10.7845
4146
root 12.8386 17.7923 -12.8068 14.7471 -25.4695 9.10382
lowerback 14.7785 0.699626 1.59851
upperback 5.99457 1.25378 7.39941
thorax -2.06049 0.513413 6.73778
lowerneck -7.28506 -12.162 -11.9313
upperneck 28.1325 -17.9747 9.115
head 12.465 -8.29328 2.87456
rclavicle 2.22639e-014 5.08889e-014
rhumerus 5.85484 16.015 -73.7755
rradius 40.4606
rwrist -45.2871
rhand -35.595 -29.146
rfingers 7.12502
rthumb -8.71902 -58.946
lclavicle 2.22639e-014 5.08889e-014
lhumerus -12.0596 -40.0005 99.5187
lradius 49.8331
lwrist 25.7323
lhand -17.5236 49.5476
lfingers 7.12502
lthumb 8.73005 -1720.65
rfemur -40.7163 -9.46661 5.34
rtibia 33.0103
rfoot -14.1063 -13.3536
rtoes 11.0783
lfemur -20.1289 -0.747094 -27.1279
ltibia 18.2293
lfoot -13.3281 -7.06181
ltoes -10.7126
4147
root 12.8021 17.7931 -12.8254 14.7362 -25.4116 9.21396
lowerback 15.0794 0.690394 1.57913
upperback 6.0313 1.25079 7.31385
thorax -2.18106 0.512983 6.65775
lowerneck -7.64772 -12.1755 -10.7696
upperneck 27.9803 -17.8387 8.13049
head 12.2166 -8.2146 2.34538
rclavicle -1.59028e-015 -1.90833e-014
rhumerus 6.73606 15.1133 -72.6669
rradius 40.5604
rwrist -45.3265
rhand -35.7093 -29.1463
rfingers 7.12502
rthumb -8.82925 -58.9416
lclavicle -1.59028e-015 -1.90833e-014
lhumerus -10.8816 -40.5878 99.3024
lradius 49.7496
lwrist 25.7216
lhand -17.7069 48.9489
lfingers 7.12502
lthumb 8.55318 -1721.24
rfemur -40.787 -9.80133 5.48463
rtibia 33.1586
rfoot -14.1096 -12.8932
rtoes 11.3014
lfemur -20.0658 -0.716878 -27.0742
ltibia 18.0314
lfoot -13.2466 -7.16588
ltoes -10.7977
4148
root 12.7655 17.7937 -12.8379 14.7379 -25.3657 9.31518
lowerback 15.2928 0.613684 1.50355
upperback 5.99643 1.15544 7.32691
thorax -2.32339 0.466507 6.73442
lowerneck -8.00241 -12.1965 -10.0514
upperneck 28.2282 -17.6847 7.08569
head 12.1732 -8.17122 1.86443
rclavicle -1.11319e-014 4.45278e-014
rhumerus 7.69187 14.2412 -71.7166
rradius 40.3026
rwrist -45.1315
rhand -35.7806 -29.081
rfingers 7.12502
rthumb -8.89807 -58.8734
lclavicle -1.11319e-014 4.45278e-014
lhumerus -10.0783 -40.8615 99.3718
lradius 49.8009
lwrist 25.4971
lhand -17.9094 48.8486
lfingers 7.12502
lthumb 8.3578 -1721.34
rfemur -40.8639 -10.2202 5.64864
rtibia 33.2999
rfoot -14.0829 -12.304
rtoes 11.7764
lfemur -19.9847 -0.68018 -27.0155
ltibia 17.8049
lfoot -13.1167 -7.36617
ltoes -10.3126
4149
root 12.7292 17.7924 -12.8397 14.7212 -25.4092 9.41181
lowerback 15.3914 0.564323 1.52351
upperback 6.02628 1.09439 7.26719
thorax -2.33651 0.436442 6.66899
lowerneck -8.04758 -12.1327 -10.149
upperneck 28.2573 -17.6341 7.28003
head 12.2209 -8.13508 1.95375
rclavicle 3.02153e-014 -1.27222e-014
rhumerus 8.67296 12.9751 -70.9577
rradius 39.9403
rwrist -45.1044
rhand -35.6157 -28.6708
rfingers 7.12502
rthumb -8.73897 -58.4699
lclavicle 3.02153e-014 -1.27222e-014
lhumerus -9.17791 -41.3789 99.181
lradius 50.0939
lwrist 25.8135
lhand -17.8454 49.0687
lfingers 7.12502
lthumb 8.41951 -1721.12
rfemur -40.9456 -10.5216 5.77801
rtibia 33.4056
rfoot -13.9144 -11.8743
rtoes 11.3124
lfemur -19.8359 -0.807448 -26.9659
ltibia 17.5557
lfoot -13.0403 -7.24181
ltoes -10.6103
4150
root 12.6893 17.7922 -12.8301 14.5976 -25.6498 9.33177
lowerback 15.6159 0.580232 1.70286
upperback 6.14169 1.13785 7.1667
thorax -2.33322 0.457653 6.44892
lowerneck -8.00923 -12.0359 -11.324
upperneck 28.4223 -17.7813 8.82495
head 12.6037 -8.14403 2.66535
rclavicle 5.725e-014 9.54166e-015
rhumerus 9.63953 11.4356 -70.4696
rradius 39.4449
rwrist -44.6504
rhand -35.3566 -28.2119
rfingers 7.12502
rthumb -8.48896 -58.0213
lclavicle 5.725e-014 9.54166e-015
lhumerus -8.23597 -41.9417 98.7917
lradius 50.4013
lwrist 25.3896
lhand -16.7493 48.9557
lfingers 7.12502
lthumb 9.47727 -1721.28
rfemur -40.8877 -10.592 6.03821
rtibia 33.4896
rfoot -13.6933 -11.5124
rtoes 10.6618
lfemur -19.4146 -1.03539 -26.7473
ltibia 17.2538
lfoot -12.9701 -6.73019
ltoes -11.0185
4151
root 12.6493 17.791 -12.8092 14.1137 -25.8461 9.23007
lowerback 16.2136 0.506046 2.01365
upperback 6.30524 1.10054 7.0925
thorax -2.46588 0.439038 6.19996
lowerneck -8.19734 -11.9714 -10.3741
upperneck 28.4094 -17.5248 7.78827
head 12.3819 -8.04545 2.17834
rclavicle 4.29375e-014 3.18055e-014
rhumerus 10.5179 10.0596 -70.1015
rradius 38.8913
rwrist -43.7766
rhand -35.2421 -28.0977
rfingers 7.12502
rthumb -8.37845 -57.9115
lclavicle 4.29375e-014 3.18055e-014
lhumerus -7.51965 -42.2373 98.525
lradius 50.6392
lwrist 23.7556
lhand -16.7413 48.7555
lfingers 7.12502
lthumb 9.48492 -1721.48
rfemur -40.4175 -10.8587 6.33677
rtibia 33.591
rfoot -13.3828 -10.9484
rtoes 10.1388
lfemur -18.5358 -1.5236 -26.489
ltibia 16.9342
lfoot -12.9114 -5.97241
ltoes -11.0676
4152
root 12.6156 17.7803 -12.7597 12.9764 -26.1726 9.2735
lowerback 17.2217 0.350553 2.44499
upperback 6.67076 0.982524 6.96671
thorax -2.58748 0.377488 5.84581
lowerneck -8.11446 -11.8346 -11.3887
upperneck 28.6079 -17.4587 8.70103
head 12.653 -8.01716 2.6796
rclavicle 4.92986e-014 -9.54166e-015
rhumerus 11.4095 8.78791 -69.7574
rradius 38.335
rwrist -43.6682
rhand -35.3227 -27.1152
rfingers 7.12502
rthumb -8.45618 -56.9259
lclavicle 4.92986e-014 -9.54166e-015
lhumerus -6.86371 -42.2631 98.3382
lradius 51.0213
lwrist 23.1544
lhand -17.6402 48.4651
lfingers 7.12502
lthumb 8.61755 -1721.73
rfemur -39.3001 -11.2105 6.34897
rtibia 33.6986
rfoot -12.9526 -10.172
rtoes 10.0187
lfemur -16.9301 -2.8098 -26.4042
ltibia 16.6947
lfoot -13.0098 -4.19709
ltoes -11.3115
4153
root 12.5661 17.7896 -12.7935 14.0693 -26.3475 9.3889
lowerback 16.3306 0.455491 1.8536
upperback 6.37598 1.00634 7.00783
thorax -2.44514 0.389308 6.21847
lowerneck -8.27994 -11.7718 -10.4488
upperneck 28.5383 -17.1914 7.64547
head 12.4051 -7.91886 2.18823
rclavicle 1.90833e-014 -3.49861e-014
rhumerus 12.1846 7.35585 -69.6278
rradius 37.8442
rwrist -43.6661
rhand -35.5727 -26.143
rfingers 7.12502
rthumb -8.69744 -55.9438
lclavicle 1.90833e-014 -3.49861e-014
lhumerus -6.3236 -42.3912 98.1286
lradius 51.6978
lwrist 23.9218
lhand -15.7432 48.1444
lfingers 7.12502
lthumb 10.4479 -1722.14
rfemur -40.7185 -11.2835 6.75193
rtibia 33.8526
rfoot -12.9593 -10.3191
rtoes 10.0176
lfemur -18.145 -1.86281 -26.3724
ltibia 16.5055
lfoot -12.8361 -5.13411
ltoes -11.3057
4154
root 12.5154 17.805 -12.8502 15.8771 -26.2586 9.27827
lowerback 14.9699 0.505397 1.4941
upperback 5.86368 0.995729 7.06635
thorax -2.27181 0.391554 6.47987
lowerneck -8.14535 -11.6991 -11.1575
upperneck 28.6406 -17.2689 8.57529
head 12.6088 -7.92527 2.63061
rclavicle 4.77083e-015 -4.45278e-014
rhumerus 12.8403 5.96429 -69.7393
rradius 37.4542
rwrist -42.3752
rhand -35.8611 -27.1051
rfingers 7.12502
rthumb -8.97581 -56.8942
lclavicle 4.77083e-015 -4.45278e-014
lhumerus -5.97423 -42.723 97.905
lradius 52.4469
lwrist 24.3182
lhand -13.7261 48.1548
lfingers 7.12502
lthumb 12.3932 -1722.23
rfemur -42.7738 -11.2899 7.48399
rtibia 34.0074
rfoot -13.0292 -10.8215
rtoes 9.52773
lfemur -20.2035 -0.6834 -26.1141
ltibia 16.4015
lfoot -12.4664 -6.65813
ltoes -10.8404
4155
root 12.4708 17.8094 -12.8687 16.1006 -25.7628 9.16835
lowerback 15.1146 0.257008 1.8296
upperback 5.76491 0.734728 7.07836
thorax -2.42281 0.268221 6.34626
lowerneck -8.24797 -11.6061 -10.1924
upperneck 28.4927 -17.0251 7.73506
head 12.3431 -7.81572 2.21469
rclavicle -2.8625e-014 8.90555e-014
rhumerus 13.5579 4.68392 -69.8852
rradius 37.0058
rwrist -40.9062
rhand -36.0621 -28.2382
rfingers 7.12502
rthumb -9.16973 -58.0188
lclavicle -2.8625e-014 8.90555e-014
lhumerus -5.61942 -43.0281 97.6623
lradius 53.0668
lwrist 24.0901
lhand -13.538 48.3143
lfingers 7.12502
lthumb 12.5746 -1722.08
rfemur -42.8527 -11.3162 7.7604
rtibia 34.1588
rfoot -13.323 -11.1249
rtoes 9.77892
lfemur -20.4076 -1.06989 -25.6919
ltibia 16.3939
lfoot -12.3123 -6.74384
ltoes -10.8582
4156
root 12.424 17.8124 -12.8648 16.3674 -25.878 9.0283
lowerback 14.943 0.227394 1.85737
upperback 5.75167 0.691734 7.13612
thorax -2.34085 0.245783 6.39838
lowerneck -8.26003 -11.4666 -10.6052
upperneck 28.5696 -16.9062 8.21538
head 12.459 -7.75118 2.47193
rclavicle 1.27222e-014 5.08889e-014
rhumerus 14.179 3.59712 -69.9675
rradius 36.5675
rwrist -40.1023
rhand -36.5548 -28.4322
rfingers 7.12502
rthumb -9.64515 -58.1914
lclavicle 1.27222e-014 5.08889e-014
lhumerus -5.39218 -43.0779 97.6535
lradius 53.6729
lwrist 23.8302
lhand -13.2469 48.3987
lfingers 7.12502
lthumb 12.8552 -1722.02
rfemur -43.1016 -11.0297 8.01596
rtibia 34.2759
rfoot -13.4506 -11.2179
rtoes 10.8268
lfemur -20.5736 -1.27497 -25.3686
ltibia 16.4447
lfoot -12.3177 -6.34219
ltoes -11.1711
4157
root 12.3695 17.8166 -12.8689 16.4619 -26.249 8.96392
lowerback 15.0581 0.33601 1.56389
upperback 5.73125 0.802727 7.19987
thorax -2.43954 0.298173 6.62073
lowerneck -8.39525 -11.4153 -10.7477
upperneck 28.8074 -16.8312 8.22483
head 12.5911 -7.72155 2.50076
rclavicle -2.06736e-014 1.59028e-014
rhumerus 14.7281 2.56823 -70.284
rradius 36.0859
rwrist -39.0806
rhand -36.7575 -28.2678
rfingers 7.12502
rthumb -9.8407 -58.0178
lclavicle -2.06736e-014 1.59028e-014
lhumerus -5.3534 -43.1158 97.7929
lradius 54.3451
lwrist 23.9278
lhand -13.2276 48.1694
lfingers 7.12502
lthumb 12.8738 -1722.25
rfemur -43.3388 -10.8019 8.30639
rtibia 34.4002
rfoot -13.3723 -11.1116
rtoes 11.5399
lfemur -20.5556 -1.18232 -25.1688
ltibia 16.4209
lfoot -12.2824 -6.00896
ltoes -11.6908
4158
root 12.3118 17.8161 -12.8729 16.5351 -26.9319 8.98307
lowerback 15.1479 0.556052 1.09849
upperback 5.71653 1.02978 7.15985
thorax -2.53434 0.408256 6.80851
lowerneck -8.57092 -11.3723 -10.3415
upperneck 29.0584 -16.6987 7.68308
head 12.6127 -7.67107 2.25047
rclavicle 7.31528e-014 -5.08889e-014
rhumerus 15.323 1.46299 -70.9698
rradius 35.4172
rwrist -37.8018
rhand -36.5629 -27.9165
rfingers 7.12502
rthumb -9.65293 -57.6753
lclavicle 7.31528e-014 -5.08889e-014
lhumerus -5.47773 -43.0202 97.9452
lradius 54.9502
lwrist 24.0473
lhand -13.1821 47.9901
lfingers 7.12502
lthumb 12.9176 -1722.43
rfemur -43.7474 -10.75 8.66234
rtibia 34.5267
rfoot -12.9189 -10.7327
rtoes 10.7748
lfemur -20.5247 -1.00377 -25.0965
ltibia 16.3777
lfoot -12.2689 -5.52134
ltoes -12.3537
